{
  "asset": {
    "generator": "Khronos Blender glTF 2.0 I/O",
    "version": "2.0"
  },
  "scene": 0,
  "scenes": [
    {
      "name": "Scene",
      "nodes": [
        0,
        1,
        2
      ]
    }
  ],
  "nodes": [
    {
      "mesh": 0,
      "name": "Saturn.001"
    },
    {
      "mesh": 1,
      "name": "RingsTop"
    },
    {
      "mesh": 2,
      "name": "RingsBottom"
    }
  ],
  "materials": [
    {
      "name": "None",
      "pbrMetallicRoughness": {
        "baseColorTexture": {
          "index": 0,
          "texCoord": 0
        },
        "metallicFactor": 0.10000000149011612,
        "roughnessFactor": 0.699999988079071
      }
    },
    {
      "alphaMode": "BLEND",
      "name": "SaturnRings",
      "pbrMetallicRoughness": {
        "baseColorTexture": {
          "index": 1,
          "texCoord": 0
        },
        "metallicFactor": 0,
        "roughnessFactor": 1
      }
    }
  ],
  "meshes": [
    {
      "name": "Cube.002",
      "primitives": [
        {
          "attributes": {
            "POSITION": 0,
            "NORMAL": 1,
            "TEXCOORD_0": 2
          },
          "indices": 3,
          "material": 0
        }
      ]
    },
    {
      "name": "Plane.002",
      "primitives": [
        {
          "attributes": {
            "POSITION": 4,
            "NORMAL": 5,
            "TEXCOORD_0": 6
          },
          "indices": 7,
          "material": 1
        }
      ]
    },
    {
      "name": "Plane.002",
      "primitives": [
        {
          "attributes": {
            "POSITION": 8,
            "NORMAL": 9,
            "TEXCOORD_0": 10
          },
          "indices": 11,
          "material": 1
        }
      ]
    }
  ],
  "textures": [
    {
      "source": 0
    },
    {
      "source": 1
    }
  ],
  "images": [
    {
      "name": "saturn_diff.jpg",
      "uri": "Saturn_1_120536_img0.png"
    },
    {
      "name": "saturn_rings_25sat_outterRings.png",
      "uri": "Saturn_1_120536_img1.png"
    }
  ],
  "accessors": [
    {
      "bufferView": 0,
      "componentType": 5126,
      "count": 1649,
      "max": [
        500,
        451.0190124511719,
        500
      ],
      "min": [
        -500,
        -451.0190124511719,
        -500
      ],
      "type": "VEC3"
    },
    {
      "bufferView": 1,
      "componentType": 5126,
      "count": 1649,
      "type": "VEC3"
    },
    {
      "bufferView": 2,
      "componentType": 5126,
      "count": 1649,
      "type": "VEC2"
    },
    {
      "bufferView": 3,
      "componentType": 5123,
      "count": 9216,
      "type": "SCALAR"
    },
    {
      "bufferView": 4,
      "componentType": 5126,
      "count": 256,
      "max": [
        1165.4505615234375,
        0,
        1165.4503173828125
      ],
      "min": [
        -1165.450439453125,
        0,
        -1165.450439453125
      ],
      "type": "VEC3"
    },
    {
      "bufferView": 5,
      "componentType": 5126,
      "count": 256,
      "type": "VEC3"
    },
    {
      "bufferView": 6,
      "componentType": 5126,
      "count": 256,
      "type": "VEC2"
    },
    {
      "bufferView": 7,
      "componentType": 5123,
      "count": 384,
      "type": "SCALAR"
    },
    {
      "bufferView": 8,
      "componentType": 5126,
      "count": 256,
      "max": [
        1165.4505615234375,
        0,
        1165.4503173828125
      ],
      "min": [
        -1165.450439453125,
        0,
        -1165.450439453125
      ],
      "type": "VEC3"
    },
    {
      "bufferView": 9,
      "componentType": 5126,
      "count": 256,
      "type": "VEC3"
    },
    {
      "bufferView": 10,
      "componentType": 5126,
      "count": 256,
      "type": "VEC2"
    },
    {
      "bufferView": 11,
      "componentType": 5123,
      "count": 384,
      "type": "SCALAR"
    }
  ],
  "bufferViews": [
    {
      "buffer": 0,
      "byteLength": 19788,
      "byteOffset": 0
    },
    {
      "buffer": 0,
      "byteLength": 19788,
      "byteOffset": 19788
    },
    {
      "buffer": 0,
      "byteLength": 13192,
      "byteOffset": 39576
    },
    {
      "buffer": 0,
      "byteLength": 18432,
      "byteOffset": 52768
    },
    {
      "buffer": 0,
      "byteLength": 3072,
      "byteOffset": 71200
    },
    {
      "buffer": 0,
      "byteLength": 3072,
      "byteOffset": 74272
    },
    {
      "buffer": 0,
      "byteLength": 2048,
      "byteOffset": 77344
    },
    {
      "buffer": 0,
      "byteLength": 768,
      "byteOffset": 79392
    },
    {
      "buffer": 0,
      "byteLength": 3072,
      "byteOffset": 80160
    },
    {
      "buffer": 0,
      "byteLength": 3072,
      "byteOffset": 83232
    },
    {
      "buffer": 0,
      "byteLength": 2048,
      "byteOffset": 86304
    },
    {
      "buffer": 0,
      "byteLength": 768,
      "byteOffset": 88352
    }
  ],
  "buffers": [
    {
      "uri": "Saturn_1_120536_data.bin",
      "byteLength": 89120
    }
  ]
}